<?xml version="1.0" encoding="iso-8859-1"?>
<!-- Generator: Adobe Illustrator 19.0.0, SVG Export Plug-In . SVG Version: 6.00 Build 0)  -->
<svg version="1.1" id="Capa_1" xmlns="http://www.w3.org/2000/svg" xmlns:xlink="http://www.w3.org/1999/xlink" x="0px" y="0px"
	 viewBox="0 0 512 512" style="enable-background:new 0 0 512 512;" xml:space="preserve">
<g>
	<g>
		<path d="M491.533,305.92c7.874-37.339,6.79-76.306-3.2-113.149c-10.93-40.31-32.405-77.314-62.1-107.01
			s-66.7-51.17-107.011-62.099c-36.842-9.989-75.81-11.073-113.151-3.2C181.627,5.167,152.634-1.916,123.653,0.446
			C91.902,3.035,61.995,16.883,39.439,39.439S3.037,91.901,0.446,123.652c-2.364,28.982,4.719,57.972,20.016,82.419
			c-7.874,37.339-6.79,76.307,3.2,113.151c10.93,40.311,32.404,77.314,62.099,107.01c29.695,29.696,66.699,51.17,107.009,62.099
			c36.842,9.99,75.811,11.074,113.15,3.201c21.366,13.37,46.201,20.469,71.469,20.468c3.644,0,7.3-0.148,10.953-0.445
			c31.753-2.588,61.662-16.437,84.219-38.994s36.404-52.467,38.993-84.219C513.918,359.361,506.831,330.366,491.533,305.92z
			 M323.275,369.666c-18.169,13.074-42.059,20.273-67.27,20.273s-49.101-7.2-67.27-20.273
			c-19.735-14.201-30.603-33.578-30.603-54.565c0-8.691,7.046-15.738,15.738-15.738s15.738,7.046,15.738,15.738
			c0,23.505,30.405,43.364,66.397,43.364s66.397-19.858,66.397-43.364c0-21.626-37.386-34.273-73.54-46.503
			c-20.508-6.937-41.715-14.111-58.07-23.703c-21.671-12.711-32.66-28.859-32.66-47.996c0-20.987,10.867-40.365,30.603-54.565
			c18.169-13.074,42.059-20.273,67.27-20.273c25.211,0,49.101,7.2,67.27,20.273c19.735,14.201,30.603,33.578,30.603,54.565
			c0,8.692-7.046,15.738-15.738,15.738s-15.738-7.046-15.738-15.738c0-23.505-30.406-43.364-66.397-43.364
			c-35.991,0-66.397,19.858-66.397,43.364c0,18.427,36.838,30.889,69.341,41.884c44.496,15.053,94.93,32.112,94.93,76.319
			C353.878,336.088,343.01,355.466,323.275,369.666z"/>
	</g>
</g>
<g>
</g>
<g>
</g>
<g>
</g>
<g>
</g>
<g>
</g>
<g>
</g>
<g>
</g>
<g>
</g>
<g>
</g>
<g>
</g>
<g>
</g>
<g>
</g>
<g>
</g>
<g>
</g>
<g>
</g>
</svg>
